<svg width="216" height="219" viewBox="0 0 216 219" fill="none" xmlns="http://www.w3.org/2000/svg">
<rect x="2.5" y="2.5" width="211" height="214" rx="47.5" fill="white" stroke="#444444" stroke-width="5"/>
<path d="M159.559 145.713C158.744 145.713 157.977 145.426 157.354 144.802L145.367 132.816C144.168 131.617 144.168 129.651 145.367 128.452C146.566 127.254 148.532 127.254 149.73 128.452L161.717 140.439C162.915 141.638 162.915 143.604 161.717 144.802C161.141 145.426 160.326 145.713 159.559 145.713Z" fill="#444444"/>
<path d="M137.744 127.973C136.833 127.973 135.97 127.589 135.346 126.822C134.292 125.48 134.483 123.562 135.778 122.459C141.579 117.712 144.936 110.712 144.936 103.233C144.936 89.5678 133.812 78.4921 120.195 78.4921C107.585 78.4921 96.9893 87.9376 95.5988 100.452C95.407 102.13 93.8727 103.376 92.1946 103.185C90.5164 102.993 89.2697 101.459 89.4615 99.7804C91.1876 84.1019 104.421 72.307 120.195 72.307C137.264 72.307 151.121 86.1636 151.121 103.233C151.121 112.582 146.95 121.356 139.662 127.254C139.134 127.781 138.415 127.973 137.744 127.973Z" fill="#444444"/>
<path d="M120.147 67.3685C118.421 67.3685 117.03 65.9781 117.03 64.252V47.5666C117.03 45.8405 118.421 44.4501 120.147 44.4501C121.873 44.4501 123.263 45.8405 123.263 47.5666V64.252C123.263 65.9781 121.873 67.3685 120.147 67.3685Z" fill="#444444"/>
<path d="M81.1666 106.349H64.4813C62.7552 106.349 61.3647 104.959 61.3647 103.233C61.3647 101.507 62.7552 100.116 64.4813 100.116H81.1666C82.8927 100.116 84.2831 101.507 84.2831 103.233C84.2831 104.959 82.8927 106.349 81.1666 106.349Z" fill="#444444"/>
<path d="M175.861 106.349H159.176C157.45 106.349 156.059 104.959 156.059 103.233C156.059 101.507 157.45 100.116 159.176 100.116H175.861C177.587 100.116 178.977 101.507 178.977 103.233C178.977 104.959 177.587 106.349 175.861 106.349Z" fill="#444444"/>
<path d="M147.573 78.9235C146.758 78.9235 145.99 78.6359 145.367 78.0126C144.168 76.8139 144.168 74.8481 145.367 73.6494L157.354 61.6628C158.552 60.4641 160.518 60.4641 161.717 61.6628C162.915 62.8615 162.915 64.8273 161.717 66.0259L149.73 78.0126C149.155 78.6359 148.34 78.9235 147.573 78.9235Z" fill="#444444"/>
<path d="M92.7694 78.9235C91.9544 78.9235 91.1872 78.6359 90.5639 78.0126L78.5772 66.0259C77.3786 64.8273 77.3786 62.8615 78.5772 61.6628C79.7759 60.4641 81.7417 60.4641 82.9404 61.6628L94.927 73.6494C96.1257 74.8481 96.1257 76.8139 94.927 78.0126C94.3517 78.6359 93.5845 78.9235 92.7694 78.9235Z" fill="#444444"/>
<path d="M58.2959 174.385C46.4052 174.289 36.72 164.604 36.72 152.713C36.72 142.405 43.8161 133.774 53.5013 131.617C53.3574 130.754 53.2615 129.891 53.2615 128.98C53.2615 120.877 59.8783 114.26 67.9812 114.26C70.6662 114.26 73.2554 114.979 75.5089 116.322C81.694 108.123 91.2354 103.376 101.64 103.376C117.894 103.376 131.606 115.363 134.051 131.137C145.319 131.905 154.237 141.302 154.237 152.761C154.237 164.604 144.6 174.289 132.805 174.433L58.2959 174.385ZM67.9812 120.445C63.2825 120.445 59.4468 124.281 59.4468 128.98C59.4468 130.322 59.7345 131.617 60.3578 132.816C60.8372 133.774 60.7892 134.877 60.2618 135.788C59.7344 136.699 58.7755 137.275 57.7207 137.323C49.4259 137.658 42.9053 144.419 42.9053 152.761C42.9053 161.248 49.8094 168.2 58.2959 168.248H132.805C141.244 168.152 148.1 161.248 148.1 152.761C148.1 144.227 141.148 137.275 132.613 137.275C132.277 137.275 131.942 137.275 131.51 137.323C130.695 137.37 129.88 137.131 129.257 136.555C128.634 136.028 128.25 135.261 128.202 134.446C127.291 120.493 115.64 109.561 101.64 109.561C92.2423 109.561 83.7557 114.356 78.8652 122.411C78.3857 123.226 77.5225 123.754 76.5636 123.897C75.6047 123.993 74.6938 123.706 74.0225 122.986C72.4403 121.308 70.2827 120.445 67.9812 120.445Z" fill="#444444"/>
</svg>
